<svg xmlns="http://www.w3.org/2000/svg" xmlns:xlink="http://www.w3.org/1999/xlink" viewBox="0 0 237.89 224.2"><defs><style>.cls-1{fill:#dfe8ef;}.cls-11,.cls-2,.cls-3,.cls-8{fill:none;stroke-linecap:round;stroke-linejoin:round;}.cls-2,.cls-3{stroke:#dfe8ef;stroke-width:2px;}.cls-3{stroke-dasharray:5.08 6.1;}.cls-4{fill:url(#未命名的渐变_1144);}.cls-5{fill:url(#未命名的渐变_1144-2);}.cls-6{fill:url(#未命名的渐变_814);}.cls-7{fill:url(#未命名的渐变_814-2);}.cls-8{stroke:#a4ef9a;}.cls-9{fill:url(#未命名的渐变_8);}.cls-10{fill:url(#未命名的渐变_79);}.cls-11{stroke:#61ef48;}</style><linearGradient id="未命名的渐变_1144" x1="189.33" y1="171.7" x2="205.87" y2="171.7" gradientUnits="userSpaceOnUse"><stop offset="0" stop-color="#abff61"/><stop offset="1" stop-color="#5effc9"/></linearGradient><linearGradient id="未命名的渐变_1144-2" x1="189.33" y1="180.52" x2="226.31" y2="180.52" xlink:href="#未命名的渐变_1144"/><linearGradient id="未命名的渐变_814" x1="-1482.17" y1="48.27" x2="-1465.62" y2="48.27" gradientTransform="matrix(1, 0, 0, -1, 1502.52, 96.53)" gradientUnits="userSpaceOnUse"><stop offset="0" stop-color="#5effc9"/><stop offset="1" stop-color="#abff61"/></linearGradient><linearGradient id="未命名的渐变_814-2" x1="-1482.17" y1="57.09" x2="-1445.18" y2="57.09" gradientTransform="matrix(1, 0, 0, -1, 1482.17, 114.18)" xlink:href="#未命名的渐变_814"/><linearGradient id="未命名的渐变_8" x1="96.03" y1="157.65" x2="96.03" y2="21.89" gradientUnits="userSpaceOnUse"><stop offset="0" stop-color="#1c92ff"/><stop offset="1" stop-color="#4beeff"/></linearGradient><linearGradient id="未命名的渐变_79" x1="141.28" y1="67.14" x2="141.28" y2="202.88" gradientUnits="userSpaceOnUse"><stop offset="0" stop-color="#ffff14"/><stop offset="1" stop-color="#ffa126"/></linearGradient></defs><title>Python</title><g id="图层_2" data-name="图层 2"><g id="图层_1-2" data-name="图层 1"><circle class="cls-1" cx="193.41" cy="52.89" r="5"/><path class="cls-2" d="M193.64,56.34c0-.85,0-1.68-.11-2.5"/><path class="cls-3" d="M192.4,47.85a29.47,29.47,0,0,0-28.21-21H149"/><line class="cls-2" x1="145.91" y1="26.89" x2="143.41" y2="26.89"/><circle class="cls-1" cx="46.41" cy="172.89" r="5"/><path class="cls-2" d="M46.18,169.44h0c0,.84,0,1.67.1,2.5"/><path class="cls-3" d="M47.42,177.92a29.46,29.46,0,0,0,28.2,21H90.85"/><line class="cls-2" x1="93.91" y1="198.89" x2="96.41" y2="198.89"/><rect class="cls-4" x="189.33" y="169.32" width="16.63" height="4.76" rx="2.38" ry="2.38"/><rect class="cls-5" x="189.33" y="178.14" width="36.98" height="4.76" rx="2.38" ry="2.38"/><rect class="cls-6" x="20.36" y="45.89" width="16.63" height="4.76" rx="2.38" ry="2.38" transform="translate(57.34 96.53) rotate(-180)"/><rect class="cls-7" y="54.71" width="36.98" height="4.76" rx="2.38" ry="2.38" transform="translate(36.98 114.18) rotate(180)"/><circle class="cls-1" cx="193.41" cy="52.89" r="5"/><path class="cls-2" d="M193.64,56.34c0-.85,0-1.68-.11-2.5"/><path class="cls-3" d="M192.4,47.85a29.47,29.47,0,0,0-28.21-21H149"/><line class="cls-2" x1="145.91" y1="26.89" x2="143.41" y2="26.89"/><circle class="cls-1" cx="46.41" cy="172.89" r="5"/><path class="cls-2" d="M46.18,169.44h0c0,.84,0,1.67.1,2.5"/><path class="cls-3" d="M47.42,177.92a29.46,29.46,0,0,0,28.2,21H90.85"/><line class="cls-2" x1="93.91" y1="198.89" x2="96.41" y2="198.89"/><path class="cls-8" d="M170.85,153.11q-4.8,2.07-9.83,4.06-6,2.37-12.32,4.63"/><path class="cls-8" d="M162,91.41q5.31,1.68,10.34,3.44"/><path class="cls-8" d="M154.56,151.77q-1.41,5.25-3,10.22"/><path class="cls-8" d="M164.16,81.71a277.53,277.53,0,0,1-2,30.38"/><path class="cls-9" d="M138,21.89H99.29A25.87,25.87,0,0,0,73.41,47.77V63h38.82c3.53,0,6.43,5.16,6.43,8.69H54A25.88,25.88,0,0,0,28.16,97.55v34.21A25.88,25.88,0,0,0,54,157.65H64.72V133.39a25.79,25.79,0,0,1,25.79-25.88H138a25.81,25.81,0,0,0,25.89-25.8V47.77A25.88,25.88,0,0,0,138,21.89ZM92.77,51c-3.53,0-6.42-2.72-6.42-8.06s2.89-6.43,6.42-6.43,6.52,1.08,6.52,6.42S96.39,51,92.77,51Z"/><path id="_路径_" data-name="&lt;路径&gt;" class="cls-10" d="M183.27,67.14H172.59V91.39a25.81,25.81,0,0,1-25.8,25.88H99.29a25.78,25.78,0,0,0-25.88,25.79V177a25.88,25.88,0,0,0,25.88,25.88H138A25.89,25.89,0,0,0,163.91,177V161.8H125.07c-3.53,0-6.41-5.16-6.41-8.69h64.61a25.89,25.89,0,0,0,25.89-25.88V93A25.89,25.89,0,0,0,183.27,67.14ZM144.54,173.83c3.53,0,6.42,2.71,6.42,8a6.42,6.42,0,0,1-6.42,6.43c-3.62,0-6.52-1.09-6.52-6.43S140.92,173.83,144.54,173.83Z"/><path class="cls-11" d="M73.41,180C46,183,26.54,179.77,23.28,170c-5.53-16.69,37.81-46.07,96.8-65.63s111.31-21.9,116.84-5.21c3,9-8.29,21.73-28.59,34.61"/><path class="cls-11" d="M209,110.56c16.43,8.91,25.63,17.76,24,24.7-3.5,14.88-55.39,15.4-115.89,1.16S10.36,98.58,13.86,83.69C15.71,75.84,31.06,72,54,72.19"/><path class="cls-11" d="M133.58,202C123.9,216.79,113,225,102.64,223.53c-23.74-3.35-35.94-56-27.25-117.5S110.37-2.68,134.11.67c10.77,1.52,19.16,13.16,24.3,31.16"/><rect class="cls-4" x="189.33" y="169.32" width="16.63" height="4.76" rx="2.38" ry="2.38"/><rect class="cls-5" x="189.33" y="178.14" width="36.98" height="4.76" rx="2.38" ry="2.38"/><rect class="cls-6" x="20.36" y="45.89" width="16.63" height="4.76" rx="2.38" ry="2.38" transform="translate(57.34 96.53) rotate(-180)"/><rect class="cls-7" y="54.71" width="36.98" height="4.76" rx="2.38" ry="2.38" transform="translate(36.98 114.18) rotate(180)"/></g></g></svg>